<?xml version="1.0" encoding="utf-8"?>
<!-- Generator: Adobe Illustrator 23.0.1, SVG Export Plug-In . SVG Version: 6.00 Build 0)  -->
<svg version="1.1" id="aButton" xmlns="http://www.w3.org/2000/svg" xmlns:xlink="http://www.w3.org/1999/xlink" x="0px" y="0px"
	 viewBox="0 0 192 212" style="enable-background:new 0 0 192 212;" xml:space="preserve">
<style type="text/css">
	.st0{fill:#1C2D59;}
	.st1{fill:url(#blueCircle_1_);}
	.st2{display:none;fill:url(#blueInnerGradident_1_);}
	.st3{fill-rule:evenodd;clip-rule:evenodd;fill:#1F3566;}
	.st4{fill-rule:evenodd;clip-rule:evenodd;fill:#2D4398;}
	#aButton:hover .st1 {fill:url(#greenOuterCircle_1_); }

</style>
<path id="darkBlueHalfCircle" class="st0" d="M0,100v16c0,53.02,42.98,96,96,96s96-42.98,96-96v-16H0z"/>
<radialGradient id="blueCircle_1_" cx="96" cy="134" r="96" gradientTransform="matrix(1 0 0 -1 0 230)" gradientUnits="userSpaceOnUse">
	<stop  offset="0" style="stop-color:#4355A5"/>
	<stop  offset="0.95" style="stop-color:#4558A7"/>
	<stop  offset="1" style="stop-color:#272F6A"/>
</radialGradient>
<circle id="blueCircle" class="st1" cx="96" cy="100" r="96"/>
<radialGradient id="blueInnerGradident_1_" cx="96" cy="134" r="96" gradientTransform="matrix(1 0 0 -1 0 230)" gradientUnits="userSpaceOnUse">
	<stop  offset="0" style="stop-color:#626FB5"/>
	<stop  offset="0.85" style="stop-color:#41529A"/>
	<stop  offset="0.95" style="stop-color:#2C4195;stop-opacity:0"/>
	<stop  offset="1" style="stop-color:#2A3477;stop-opacity:0"/>
</radialGradient>
<circle id="blueInnerGradident" class="st2" cx="96" cy="96" r="96"/>
<path id="a_x5F_shadow" class="st3" d="M83.11,59.44H65.78l-19.26,83.39h12.52l7.7-32.74h14.92l8.67,32.74h12.04L83.11,59.44z
	 M71.03,96.61l3.42-18.62l3.37,18.62H71.03z"/>
<path id="a_x5F_innerColor" class="st4" d="M80.74,59.44H63.41l-19.26,83.39h12.52l7.7-32.74H79.3l8.67,32.74H100L80.74,59.44z
	 M68.66,96.61l3.42-18.62l3.37,18.62H68.66z"/>
</svg>
