<?xml version="1.0" encoding="utf-8"?>
<!-- Generator: Adobe Illustrator 23.0.1, SVG Export Plug-In . SVG Version: 6.00 Build 0)  -->
<svg version="1.1" id="cDown" xmlns="http://www.w3.org/2000/svg" xmlns:xlink="http://www.w3.org/1999/xlink" x="0px" y="0px"
	 viewBox="0 0 192 212" style="enable-background:new 0 0 192 212;" xml:space="preserve">
<style type="text/css">
	.st0{fill:#7F712D;}
	.st1{fill:url(#outerYellowCircle_1_);}
	.st2{fill:url(#yellowCircle_1_);}
	.st3{fill-rule:evenodd;clip-rule:evenodd;fill:#7F712D;}
	.st4{fill-rule:evenodd;clip-rule:evenodd;fill:#BFA830;}
</style>
<path id="buttonShadow" class="st0" d="M23,98v20c0,39.76,32.24,72,72,72s72-32.24,72-72V98H23z"/>
<radialGradient id="outerYellowCircle_1_" cx="135" cy="52.3333" r="96" gradientTransform="matrix(0.75 0 0 -0.75 -6.25 134.25)" gradientUnits="userSpaceOnUse">
	<stop  offset="0" style="stop-color:#FEDF00"/>
	<stop  offset="0.95" style="stop-color:#FEDF00"/>
	<stop  offset="1" style="stop-color:#7F712D"/>
</radialGradient>
<circle id="outerYellowCircle" class="st1" cx="95" cy="98" r="72"/>
<radialGradient id="yellowCircle_1_" cx="135" cy="52.3333" r="96" gradientTransform="matrix(0.75 0 0 -0.75 -6.25 134.25)" gradientUnits="userSpaceOnUse">
	<stop  offset="0" style="stop-color:#FFE740"/>
	<stop  offset="0.85" style="stop-color:#FFE740"/>
	<stop  offset="0.95" style="stop-color:#FFE740;stop-opacity:0"/>
	<stop  offset="1" style="stop-color:#FFE740;stop-opacity:0"/>
</radialGradient>
<circle id="yellowCircle" class="st2" cx="95" cy="94" r="72"/>
<path id="triangleDownShadow" class="st3" d="M136.86,68.99c0.33-0.58-0.33-1.73-1-1.73H54.14c-0.67,0-1.33,1.15-1,1.73L94,139.76
	c0.33,0.58,1.67,0.58,2,0L136.86,68.99z"/>
<path id="triangleDown" class="st4" d="M54.45,71.26L94,139.76c0.33,0.58,1.67,0.58,2,0l39.55-68.5H54.45z"/>
</svg>
