<?xml version="1.0" encoding="utf-8"?>
<!-- Generator: Adobe Illustrator 23.0.1, SVG Export Plug-In . SVG Version: 6.00 Build 0)  -->
<svg version="1.1" id="cRight" xmlns="http://www.w3.org/2000/svg" xmlns:xlink="http://www.w3.org/1999/xlink" x="0px" y="0px"
	 viewBox="0 0 192 212" style="enable-background:new 0 0 192 212;" xml:space="preserve">
<style type="text/css">
	.st0{fill:#7F712D;}
	.st1{fill:url(#outerYellowCircle_1_);}
	.st2{fill:url(#yellowCircle_1_);}
	.st3{fill-rule:evenodd;clip-rule:evenodd;fill:#7F712D;}
	.st4{fill-rule:evenodd;clip-rule:evenodd;fill:#BFA830;}
</style>
<path id="buttonShadow" class="st0" d="M23,98v20c0,39.76,32.24,72,72,72s72-32.24,72-72V98H23z"/>
<radialGradient id="outerYellowCircle_1_" cx="135" cy="52.3333" r="96" gradientTransform="matrix(0.75 0 0 -0.75 -6.25 134.25)" gradientUnits="userSpaceOnUse">
	<stop  offset="0" style="stop-color:#FEDF00"/>
	<stop  offset="0.95" style="stop-color:#FEDF00"/>
	<stop  offset="1" style="stop-color:#7F712D"/>
</radialGradient>
<circle id="outerYellowCircle" class="st1" cx="95" cy="98" r="72"/>
<radialGradient id="yellowCircle_1_" cx="135" cy="52.3333" r="96" gradientTransform="matrix(0.75 0 0 -0.75 -6.25 134.25)" gradientUnits="userSpaceOnUse">
	<stop  offset="0" style="stop-color:#FFE740"/>
	<stop  offset="0.85" style="stop-color:#FFE740"/>
	<stop  offset="0.95" style="stop-color:#FFE740;stop-opacity:0"/>
	<stop  offset="1" style="stop-color:#FFE740;stop-opacity:0"/>
</radialGradient>
<circle id="yellowCircle" class="st2" cx="95" cy="94" r="72"/>
<path id="triangleRightShadow" class="st3" d="M137.11,96.29c0.58-0.33,0.58-1.66,0.01-2L66.51,53.15
	c-0.58-0.34-1.73,0.33-1.73,0.99l-0.32,81.72c0,0.67,1.15,1.34,1.73,1.01L137.11,96.29z"/>
<path id="triangleEight" class="st4" d="M68.45,135.57l68.66-39.28c0.58-0.33,0.58-1.66,0.01-2L68.77,54.47L68.45,135.57z"/>
</svg>
